<svg width="62" height="52" viewBox="0 0 62 52" fill="none" xmlns="http://www.w3.org/2000/svg">
<path d="M46.1126 34.6799L53.6997 4.97234H62V0.302734H50.0729L48.2843 7.30577L0 7.27123L5.13334 34.6797L46.1126 34.6799ZM47.092 11.9746L42.4858 30.0102H9.00952L5.62605 11.9449L47.092 11.9746Z" fill="white" fill-opacity="0.85"/>
<path d="M39.7203 51.6973C43.8379 51.6973 47.1878 48.3473 47.1878 44.2298C47.1878 40.1122 43.8379 36.7624 39.7203 36.7624H11.5859C7.46835 36.7624 4.11839 40.1122 4.11839 44.2298C4.11839 48.3473 7.46828 51.6973 11.5859 51.6973C15.7035 51.6973 19.0534 48.3473 19.0534 44.2298C19.0534 43.2409 18.8596 42.2966 18.509 41.432H32.7972C32.4465 42.2966 32.2528 43.2409 32.2528 44.2298C32.2529 48.3473 35.6028 51.6973 39.7203 51.6973ZM14.3838 44.2298C14.3838 45.7726 13.1287 47.0277 11.5859 47.0277C10.0432 47.0277 8.78799 45.7726 8.78799 44.2298C8.78799 42.6871 10.0431 41.432 11.5859 41.432C13.1287 41.432 14.3838 42.6871 14.3838 44.2298ZM42.5183 44.2298C42.5183 45.7726 41.2632 47.0277 39.7204 47.0277C38.1777 47.0277 36.9226 45.7726 36.9226 44.2298C36.9226 42.6871 38.1777 41.432 39.7204 41.432C41.2632 41.432 42.5183 42.6871 42.5183 44.2298Z" fill="white" fill-opacity="0.85"/>
</svg>
