<svg width="56" height="42" viewBox="0 0 56 42" fill="none"
    xmlns="http://www.w3.org/2000/svg">
    <g clip-path="url(#clip0_9_211)">
        <path d="M48.2344 0.328125H6.89062C3.08528 0.328125 0 3.4134 0
            7.21875V34.7812C0 38.5866 3.08528 41.6719 6.89062
            41.6719H48.2344C52.0397 41.6719 55.125 38.5866 55.125
            34.7812V7.21875C55.125 3.4134 52.0397 0.328125 48.2344
            0.328125ZM36.8924 18.7154L51.4778 6.21606C51.5788 6.53905 51.6797
            6.86205 51.6797 7.21875V34.7812C51.6797 35.0202 51.5888 35.2322
            51.5418 35.4575L36.8924 18.7154ZM48.2344 3.77344C48.4632 3.77344
            48.665 3.86097 48.8804 3.90468L27.5625 22.1777L6.24463
            3.90468C6.45996 3.86097 6.66183 3.77344 6.89062
            3.77344H48.2344ZM3.58162 35.4542C3.53446 35.2287 3.44531 35.0202
            3.44531 34.7812V7.21875C3.44531 6.86205 3.54792 6.53905 3.64891
            6.21606L18.2293 18.7121L3.58162 35.4542ZM6.89062 38.2266C6.54243
            38.2266 6.22611 38.1256 5.90817 38.028L20.8468 20.9562L26.4421
            25.7507C26.7634 26.03 27.1638 26.168 27.5625 26.168C27.9612 26.168
            28.3616 26.03 28.6829 25.7508L34.2782 20.9563L49.2168
            38.0281C48.9006 38.1256 48.5843 38.2266 48.2344 38.2266H6.89062Z"
            fill="white" fill-opacity="0.85"></path>
    </g>
    <defs>
        <clipPath id="clip0_9_211">
            <rect width="55.125" height="42" fill="white"></rect>
        </clipPath>
    </defs>
</svg>
