<svg width="62" height="62" viewBox="0 0 62 62" fill="none" xmlns="http://www.w3.org/2000/svg">
<g clip-path="url(#clip0_3_17)">
<path d="M31.0139 15.0111C22.1714 15.0111 15.039 22.1436 15.039 30.9861C15.039 39.8286 22.1714 46.961 31.0139 46.961C39.8565 46.961 46.9889 39.8286 46.9889 30.9861C46.9889 22.1436 39.8565 15.0111 31.0139 15.0111ZM31.0139 41.3719C25.2996 41.3719 20.6281 36.7143 20.6281 30.9861C20.6281 25.2579 25.2857 20.6003 31.0139 20.6003C36.7421 20.6003 41.3997 25.2579 41.3997 30.9861C41.3997 36.7143 36.7282 41.3719 31.0139 41.3719ZM51.3684 14.3577C51.3684 16.4293 49.7 18.0838 47.6423 18.0838C45.5707 18.0838 43.9162 16.4154 43.9162 14.3577C43.9162 12.3 45.5846 10.6316 47.6423 10.6316C49.7 10.6316 51.3684 12.3 51.3684 14.3577ZM61.9489 18.1394C61.7125 13.1481 60.5725 8.72682 56.9159 5.08415C53.2732 1.44147 48.8519 0.301392 43.8606 0.0511312C38.7164 -0.240839 23.2976 -0.240839 18.1533 0.0511312C13.1759 0.287488 8.75465 1.42756 5.09806 5.07024C1.44148 8.71292 0.315308 13.1342 0.0650472 18.1255C-0.226923 23.2697 -0.226923 38.6886 0.0650472 43.8328C0.301404 48.8241 1.44148 53.2454 5.09806 56.8881C8.75465 60.5307 13.162 61.6708 18.1533 61.9211C23.2976 62.213 38.7164 62.213 43.8606 61.9211C48.8519 61.6847 53.2732 60.5446 56.9159 56.8881C60.5586 53.2454 61.6986 48.8241 61.9489 43.8328C62.2409 38.6886 62.2409 23.2836 61.9489 18.1394ZM55.3031 49.3524C54.2186 52.0775 52.1192 54.1769 49.3803 55.2753C45.2788 56.902 35.5464 56.5266 31.0139 56.5266C26.4814 56.5266 16.7352 56.888 12.6476 55.2753C9.92253 54.1908 7.82312 52.0914 6.72476 49.3524C5.09806 45.2509 5.47345 35.5186 5.47345 30.9861C5.47345 26.4536 5.11197 16.7074 6.72476 12.6198C7.80922 9.89471 9.90862 7.7953 12.6476 6.69693C16.7491 5.07024 26.4814 5.44563 31.0139 5.44563C35.5464 5.44563 45.2927 5.08415 49.3803 6.69693C52.1053 7.7814 54.2047 9.8808 55.3031 12.6198C56.9298 16.7213 56.5544 26.4536 56.5544 30.9861C56.5544 35.5186 56.9298 45.2648 55.3031 49.3524Z" fill="white" fill-opacity="0.85"/>
</g>
<defs>
<clipPath id="clip0_3_17">
<rect width="62" height="62" fill="white"/>
</clipPath>
</defs>
</svg>
