<svg width="62" height="62" viewBox="0 0 62 62" fill="none"
    xmlns="http://www.w3.org/2000/svg">
    <path fill-rule="evenodd" clip-rule="evenodd" d="M21.7841
        0.867264H40.2159C57.0377 0.867264 61.0207 4.83538 61.0207
        21.5944V39.9575C61.0207 56.7164 57.0377 60.6846 40.2159
        60.6846H21.7841C4.96232 60.6846 0.97934 56.7164 0.97934
        39.9575V21.5944C0.97934 4.83538 4.96232 0.867264 21.7841 0.867264Z"
        fill="white" fill-opacity="0.85"></path>
    <path fill-rule="evenodd" clip-rule="evenodd" d="M50.131 21.4677C50.4276
        20.539 50.131 19.8636 48.8175 19.8636H44.4531C43.3514 19.8636 42.843
        20.4546 42.5464 21.0878C42.5464 21.0878 40.3007 26.4912 37.1651
        29.9949C36.1482 31.0081 35.6821 31.3458 35.1313 31.3458C34.8346
        31.3458 34.4533 31.0081 34.4533 30.0794V21.4255C34.4533 20.3279
        34.1143 19.8214 33.1821 19.8214H26.3178C25.6399 19.8214 25.2162
        20.3279 25.2162 20.8345C25.2162 21.8898 26.7839 22.1431 26.9534
        25.0981V31.5146C26.9534 32.9077 26.6992 33.161 26.1484
        33.161C24.6653 33.161 21.0637 27.7154 18.9027 21.5099C18.479 20.2857
        18.0553 19.8214 16.9536 19.8214H12.5469C11.2757 19.8214 11.0639
        20.4123 11.0639 21.0456C11.0639 22.1853 12.5469 27.9264 17.9705
        35.525C21.5722 40.7173 26.6992 43.5034 31.3178 43.5034C34.1143
        43.5034 34.4533 42.8702 34.4533 41.8149V37.889C34.4533 36.6225
        34.7075 36.4115 35.5973 36.4115C36.2329 36.4115 37.377 36.7492
        39.9617 39.2398C42.9277 42.1948 43.4362 43.5456 45.0887
        43.5456H49.453C50.7242 43.5456 51.3174 42.9124 50.9784
        41.6882C50.5971 40.464 49.1564 38.691 47.2921 36.5803C46.2751
        35.3983 44.7497 34.0897 44.2836 33.4565C43.6481 32.6122 43.8175
        32.2745 44.2836 31.5146C44.2413 31.5146 49.5801 24.0005 50.131
        21.4677Z" fill="#2A2A2A"></path>
</svg>
